<?xml version="1.0" encoding="utf-8"?>
<!-- Generator: Adobe Illustrator 19.2.1, SVG Export Plug-In . SVG Version: 6.00 Build 0)  -->
<svg version="1.1" id="Layer_1" xmlns="http://www.w3.org/2000/svg" xmlns:xlink="http://www.w3.org/1999/xlink" x="0px" y="0px"
	 viewBox="0 0 70 70" style="enable-background:new 0 0 70 70;" xml:space="preserve">
<style type="text/css">
	.st0{fill:#A31D21;}
</style>
<g id="Center_4_">
	<circle class="st0" cx="35" cy="35" r="8.1"/>
</g>
<g id="Bottom_7_">
	<path class="st0" d="M35,46.1c-5.2,0-9.6-3.5-11-8.3H5.2c1.6,15,14.4,26.8,29.8,26.8c15.5,0,28.2-11.7,29.8-26.8H46
		C44.6,42.6,40.2,46.1,35,46.1z"/>
</g>
<g id="Bottom_4_">
	<path class="st0" d="M35,23.9c5.2,0,9.6,3.5,11,8.3h18.8C63.2,17.1,50.5,5.4,35,5.4C19.5,5.4,6.8,17.1,5.2,32.1H24
		C25.4,27.4,29.8,23.9,35,23.9z"/>
</g>
</svg>
